<svg width="48" height="48" viewBox="0 0 48 48" fill="none" xmlns="http://www.w3.org/2000/svg">
<g clip-path="url(#clip0_110_12)">
<path d="M19.4804 16.422H19.4093C19.048 17.8759 18.6866 19.7224 18.2855 21.1364L16.8345 26.3174H22.2345L20.7124 21.1364C20.2799 19.6854 19.8446 17.8759 19.4804 16.422Z" fill="#030104"/>
<path d="M45.0581 0H2.93901C1.31444 0 0 1.31444 0 2.93901V45.061C0 46.6827 1.31444 48 2.93901 48H45.061C46.6827 48 48 46.6827 48 45.061V2.93901C48 1.31729 46.6827 0 45.0581 0ZM24.9176 36.7163L23.0312 30.4485H16.0408L14.2996 36.7163H8.57519L16.0408 12.2966H23.2845L30.861 36.7163H24.9176ZM39.2427 36.7163H33.7317V18.9997H39.2427V36.7163ZM36.4545 16.826C34.7161 16.826 33.5553 15.5913 33.5895 14.0691C33.5553 12.473 34.7161 11.2837 36.4943 11.2837C38.2668 11.2837 39.3907 12.4758 39.4248 14.0691C39.4248 15.5913 38.2668 16.826 36.4545 16.826Z" fill="#030104"/>
</g>
<defs>
<clipPath id="clip0_110_12">
<rect width="48" height="48" fill="white"/>
</clipPath>
</defs>
</svg>
