<svg width="48" height="47" viewBox="0 0 48 47" fill="none" xmlns="http://www.w3.org/2000/svg">
<path d="M8.5 0H39.5C44.2 0 48 3.8 48 8.5V38.3C48 43 44.2 46.8 39.5 46.8H8.5C3.8 46.8 0 43 0 38.3V8.5C0 3.8 3.8 0 8.5 0Z" fill="black"/>
<path d="M23.2599 28.08H15.8199L14.2999 32.78C14.2599 32.96 14.0999 33.08 13.9199 33.06H10.1599C9.93988 33.06 9.87988 32.94 9.93988 32.7L16.3799 14.16C16.4399 13.96 16.4999 13.74 16.5799 13.5C16.6599 13.08 16.6999 12.64 16.6999 12.2C16.6799 12.1 16.7599 12 16.8599 11.98H22.0399C22.1999 11.98 22.2799 12.04 22.2999 12.14L29.5999 32.74C29.6599 32.96 29.5999 33.06 29.3999 33.06H25.2199C25.0799 33.08 24.9399 32.98 24.8999 32.84L23.2599 28.08ZM16.9799 24.02H22.0599C21.9399 23.6 21.7799 23.1 21.5999 22.58C21.4199 22.04 21.2399 21.46 21.0599 20.86C20.8599 20.24 20.6799 19.64 20.4799 19.02C20.2799 18.4 20.0999 17.82 19.9399 17.24C19.7799 16.68 19.6399 16.16 19.4999 15.68H19.4599C19.2799 16.54 19.0599 17.4 18.7799 18.26C18.4799 19.22 18.1799 20.22 17.8599 21.22C17.5799 22.24 17.2799 23.18 16.9799 24.02Z" fill="white"/>
<path d="M33.9602 15.4C33.3002 15.42 32.6602 15.16 32.1802 14.7C31.7202 14.2 31.4802 13.54 31.5002 12.86C31.4802 12.18 31.7402 11.54 32.2202 11.08C32.7002 10.62 33.3402 10.38 34.0002 10.38C34.7802 10.38 35.3802 10.62 35.8202 11.08C36.2602 11.56 36.5002 12.2 36.4802 12.86C36.5002 13.54 36.2602 14.2 35.7802 14.7C35.3202 15.18 34.6402 15.44 33.9602 15.4ZM31.7202 32.76V17.36C31.7202 17.16 31.8002 17.08 31.9802 17.08H35.9402C36.1202 17.08 36.2002 17.18 36.2002 17.36V32.76C36.2002 32.98 36.1202 33.08 35.9402 33.08H32.0202C31.8202 33.08 31.7202 32.96 31.7202 32.76Z" fill="white"/>
</svg>
