<svg width="40" height="40" viewBox="0 0 40 40" fill="none" xmlns="http://www.w3.org/2000/svg">
<g clip-path="url(#clip0_6_82)">
<path d="M26.0972 18.446C25.4395 18.446 24.9315 18.6353 24.571 19.0072C24.2079 19.3782 23.9818 19.8831 23.8892 20.5219H28.2973C28.2495 19.8418 28.0225 19.3272 27.6137 18.9756C27.208 18.623 26.7014 18.446 26.0972 18.446Z" fill="black"/>
<path d="M16.4858 18.1945C16.8555 17.9693 17.0399 17.5689 17.0399 16.9937C17.0399 16.3584 16.7958 15.9364 16.3063 15.7336C15.8856 15.5927 15.3469 15.5198 14.694 15.5198H12.1519V18.5331H15.0422C15.6358 18.5331 16.1162 18.4202 16.4858 18.1945Z" fill="black"/>
<path d="M16.4494 21.0261C16.1258 20.8763 15.6691 20.7999 15.0834 20.7947H12.1514V24.4349H15.0378C15.6309 24.4349 16.0898 24.3572 16.4213 24.1952C17.0188 23.8975 17.3183 23.3307 17.3183 22.4895C17.3183 21.7799 17.028 21.2895 16.4494 21.0261Z" fill="black"/>
<path d="M19.9775 0.219727C9.06552 0.219727 0.219727 9.06552 0.219727 19.9775C0.219727 30.8896 9.06552 39.7354 19.9775 39.7354C30.8896 39.7354 39.7354 30.8896 39.7354 19.9775C39.7354 9.06552 30.8896 0.219727 19.9775 0.219727ZM23.3254 13.7143H28.8264V15.0807H23.3254V13.7143ZM19.589 24.8639C19.3304 25.2889 19.009 25.6476 18.6226 25.9369C18.1879 26.2711 17.6729 26.5003 17.081 26.6228C16.4874 26.7453 15.8446 26.8072 15.1522 26.8072H9.00098V13.1479H15.5979C17.2606 13.1751 18.4395 13.6568 19.1359 14.603C19.5534 15.1834 19.7606 15.8793 19.7606 16.689C19.7606 17.5241 19.5512 18.1923 19.1293 18.6999C18.8948 18.9844 18.548 19.2434 18.0891 19.477C18.7842 19.7312 19.3115 20.1321 19.6641 20.6836C20.0188 21.2333 20.1962 21.9006 20.1962 22.6844C20.1958 23.4949 19.996 24.222 19.589 24.8639ZM30.9515 22.2097H23.8277C23.8668 23.1932 24.2066 23.8808 24.8503 24.2742C25.2384 24.521 25.7091 24.6417 26.2605 24.6417C26.8418 24.6417 27.3156 24.4946 27.68 24.1925C27.8789 24.0323 28.0541 23.8066 28.2056 23.5212H30.8167C30.7482 24.1021 30.4338 24.6909 29.8687 25.2898C28.9933 26.2412 27.7656 26.718 26.189 26.718C24.8863 26.718 23.7386 26.3159 22.7423 25.5141C21.7492 24.7098 21.2504 23.4049 21.2504 21.5946C21.2504 19.8972 21.6982 18.598 22.5966 17.6935C23.4984 16.7873 24.6623 16.3364 26.0968 16.3364C26.9472 16.3364 27.7138 16.4883 28.3974 16.7939C29.0793 17.0999 29.6426 17.5811 30.0865 18.2428C30.4883 18.8254 30.7464 19.4994 30.8667 20.2664C30.9335 20.7139 30.9638 21.3623 30.9515 22.2097Z" fill="black"/>
</g>
<defs>
<clipPath id="clip0_6_82">
<rect width="40" height="40" fill="white"/>
</clipPath>
</defs>
</svg>
