<svg width="48" height="48" viewBox="0 0 48 48" fill="none" xmlns="http://www.w3.org/2000/svg">
<path fill-rule="evenodd" clip-rule="evenodd" d="M19.5265 20.209C17.3989 20.209 15.6741 21.9332 15.6741 24.06C15.6741 26.1869 17.3989 27.911 19.5265 27.911H23.4829V24.06V20.209H19.5265ZM29.2094 18.3355L29.3135 18.3355C31.4411 18.3355 33.1659 16.6114 33.1659 14.4845C33.1659 12.3576 31.4411 10.6335 29.3135 10.6335H25.357V18.3355L29.2094 18.3355ZM32.4538 19.2723C34.0115 18.2492 35.04 16.4869 35.04 14.4845C35.04 11.323 32.4762 8.76001 29.3135 8.76001H25.357H24.42H23.4829H19.5265C16.3638 8.76001 13.8 11.323 13.8 14.4845C13.8 16.4869 14.8285 18.2492 16.3862 19.2723C14.8285 20.2953 13.8 22.0576 13.8 24.06C13.8 26.0624 14.8285 27.8247 16.3862 28.8478C14.8285 29.8708 13.8 31.6331 13.8 33.6355C13.8 36.8036 16.3963 39.36 19.5523 39.36C22.7372 39.36 25.357 36.7803 25.357 33.5835V29.7845V28.8478V28.2956C26.3742 29.2206 27.7259 29.7845 29.2094 29.7845H29.3135C32.4762 29.7845 35.04 27.2216 35.04 24.06C35.04 22.0576 34.0115 20.2953 32.4538 19.2723ZM29.3135 20.209L29.2094 20.209C27.0818 20.209 25.357 21.9332 25.357 24.06C25.357 26.1869 27.0818 27.911 29.2094 27.911H29.3135C31.4411 27.911 33.1659 26.1869 33.1659 24.06C33.1659 21.9332 31.4411 20.209 29.3135 20.209ZM15.6741 33.6355C15.6741 31.5087 17.3989 29.7845 19.5265 29.7845H23.4829V33.5835C23.4829 35.7325 21.7153 37.4865 19.5523 37.4865C17.4182 37.4865 15.6741 35.7558 15.6741 33.6355ZM23.4829 18.3355H19.5265C17.3989 18.3355 15.6741 16.6114 15.6741 14.4845C15.6741 12.3576 17.3989 10.6335 19.5265 10.6335H23.4829V18.3355Z" fill="black"/>
</svg>
