<svg width="40" height="40" viewBox="0 0 40 40" fill="none" xmlns="http://www.w3.org/2000/svg">
<path d="M13.0002 3.33325H27.0002C32.3335 3.33325 36.6668 7.66659 36.6668 12.9999V26.9999C36.6668 29.5637 35.6484 32.0224 33.8355 33.8353C32.0227 35.6481 29.5639 36.6666 27.0002 36.6666H13.0002C7.66683 36.6666 3.3335 32.3333 3.3335 26.9999V12.9999C3.3335 10.4362 4.35195 7.9774 6.1648 6.16455C7.97765 4.3517 10.4364 3.33325 13.0002 3.33325ZM12.6668 6.66659C11.0755 6.66659 9.54941 7.29873 8.42419 8.42394C7.29897 9.54916 6.66683 11.0753 6.66683 12.6666V27.3333C6.66683 30.6499 9.35016 33.3333 12.6668 33.3333H27.3335C28.9248 33.3333 30.4509 32.7011 31.5761 31.5759C32.7014 30.4507 33.3335 28.9245 33.3335 27.3333V12.6666C33.3335 9.34992 30.6502 6.66659 27.3335 6.66659H12.6668ZM28.7502 9.16658C29.3027 9.16658 29.8326 9.38608 30.2233 9.77678C30.614 10.1675 30.8335 10.6974 30.8335 11.2499C30.8335 11.8025 30.614 12.3324 30.2233 12.7231C29.8326 13.1138 29.3027 13.3333 28.7502 13.3333C28.1976 13.3333 27.6677 13.1138 27.277 12.7231C26.8863 12.3324 26.6668 11.8025 26.6668 11.2499C26.6668 10.6974 26.8863 10.1675 27.277 9.77678C27.6677 9.38608 28.1976 9.16658 28.7502 9.16658ZM20.0002 11.6666C22.2103 11.6666 24.3299 12.5446 25.8927 14.1074C27.4555 15.6702 28.3335 17.7898 28.3335 19.9999C28.3335 22.2101 27.4555 24.3297 25.8927 25.8925C24.3299 27.4553 22.2103 28.3333 20.0002 28.3333C17.79 28.3333 15.6704 27.4553 14.1076 25.8925C12.5448 24.3297 11.6668 22.2101 11.6668 19.9999C11.6668 17.7898 12.5448 15.6702 14.1076 14.1074C15.6704 12.5446 17.79 11.6666 20.0002 11.6666ZM20.0002 14.9999C18.6741 14.9999 17.4023 15.5267 16.4646 16.4644C15.5269 17.4021 15.0002 18.6738 15.0002 19.9999C15.0002 21.326 15.5269 22.5978 16.4646 23.5355C17.4023 24.4731 18.6741 24.9999 20.0002 24.9999C21.3262 24.9999 22.598 24.4731 23.5357 23.5355C24.4734 22.5978 25.0002 21.326 25.0002 19.9999C25.0002 18.6738 24.4734 17.4021 23.5357 16.4644C22.598 15.5267 21.3262 14.9999 20.0002 14.9999Z" fill="black"/>
</svg>
