<svg width="48" height="47" viewBox="0 0 48 47" fill="none" xmlns="http://www.w3.org/2000/svg">
<path d="M8.5 0H39.5C44.2 0 48 3.8 48 8.5V38.3C48 43 44.2 46.8 39.5 46.8H8.5C3.8 46.8 0 43 0 38.3V8.5C0 3.8 3.8 0 8.5 0Z" fill="black"/>
<path d="M23.998 33.6156H12.288C12.0768 33.6156 12 33.5004 12 33.2509V12.288C12 12.0768 12.0768 12 12.2688 12H15.897C16.0313 12 16.1081 12.0768 16.1081 12.2304V29.4499H24.6315C24.8235 29.4499 24.8811 29.5459 24.8427 29.7379L24.3052 33.3085C24.286 33.4237 24.2476 33.5196 24.19 33.558C24.1324 33.5964 24.0556 33.6156 23.998 33.6156ZM26.9159 17.2023H30.1602C30.3522 17.2023 30.4674 17.2983 30.5441 17.5287C30.6017 17.6631 30.6593 17.8358 30.6785 18.0086C30.7169 18.2198 30.7361 18.4309 30.7553 18.6421C30.7745 18.8725 30.7745 19.122 30.7745 19.3716C31.312 18.6805 31.9839 18.0662 32.7518 17.6055C33.5772 17.1064 34.5371 16.8376 35.4969 16.876C35.6889 16.876 35.7657 16.972 35.7657 17.1639V21.1569C35.7657 21.3297 35.6697 21.3872 35.4777 21.3872C34.825 21.3489 34.1723 21.3872 33.5388 21.5216C33.0013 21.6368 32.5022 21.8288 32.0031 22.0783C31.6384 22.2703 31.2928 22.5391 31.0049 22.8462V33.3085C31.0049 33.5196 30.9281 33.5964 30.7553 33.5964H27.1847C26.9735 33.5964 26.8967 33.5004 26.8967 33.2701V21.9056C26.8967 21.4064 26.8967 20.9073 26.8775 20.3698C26.8775 19.8323 26.8583 19.2948 26.8392 18.7765C26.82 18.3158 26.7816 17.8742 26.724 17.4135C26.724 17.3559 26.724 17.2983 26.7624 17.2215C26.82 17.2023 26.8583 17.1831 26.9159 17.2023Z" fill="white"/>
</svg>
