<svg width="50" height="48" viewBox="0 0 50 48" fill="none" xmlns="http://www.w3.org/2000/svg">
<g clip-path="url(#clip0_120_30)">
<path d="M8.71536 0.00390625H40.5053C45.3237 0.00390625 49.2207 3.90086 49.2207 8.71927V39.2806C49.2207 44.099 45.3237 47.996 40.5053 47.996H8.71536C3.89696 47.996 0 44.099 0 39.2806V8.71927C0 3.90086 3.89696 0.00390625 8.71536 0.00390625Z" fill="black"/>
<path d="M17.2773 33.9247H5.56725C5.35608 33.9247 5.2793 33.8095 5.2793 33.56V12.597C5.2793 12.3859 5.35608 12.3091 5.54805 12.3091H9.17625C9.31063 12.3091 9.38742 12.3859 9.38742 12.5394V29.759H17.9108C18.1028 29.759 18.1604 29.855 18.122 30.047L17.5845 33.6176C17.5653 33.7327 17.5269 33.8287 17.4693 33.8671C17.4117 33.9055 17.3349 33.9247 17.2773 33.9247ZM20.1952 17.5114H23.4395C23.6315 17.5114 23.7466 17.6074 23.8234 17.8378C23.881 17.9721 23.9386 18.1449 23.9578 18.3177C23.9962 18.5289 24.0154 18.74 24.0346 18.9512C24.0538 19.1815 24.0538 19.4311 24.0538 19.6807C24.5913 18.9896 25.2632 18.3753 26.0311 17.9146C26.8565 17.4154 27.8164 17.1467 28.7762 17.1851C28.9682 17.1851 29.045 17.2811 29.045 17.473V21.466C29.045 21.6387 28.949 21.6963 28.757 21.6963C28.1043 21.6579 27.4516 21.6963 26.8181 21.8307C26.2806 21.9459 25.7815 22.1379 25.2824 22.3874C24.9177 22.5794 24.5721 22.8481 24.2842 23.1553V33.6176C24.2842 33.8287 24.2074 33.9055 24.0346 33.9055H20.464C20.2528 33.9055 20.176 33.8095 20.176 33.5792V22.2146C20.176 21.7155 20.176 21.2164 20.1568 20.6789C20.1568 20.1414 20.1376 19.6039 20.1184 19.0856C20.0993 18.6248 20.0609 18.1833 20.0033 17.7226C20.0033 17.665 20.0033 17.6074 20.0417 17.5306C20.0993 17.5114 20.1376 17.4922 20.1952 17.5114ZM43.5962 14.4783C43.1738 14.2864 42.6939 14.1904 42.214 14.1328C41.5229 14.056 40.8126 14.0176 40.1215 14.0176C38.1059 14.0176 36.3398 14.4399 34.9 15.2846C33.4602 16.1293 32.27 17.377 31.5022 18.8744C30.6959 20.3909 30.312 22.1954 30.312 24.2111C30.2928 25.4205 30.4463 26.6299 30.7727 27.8201C31.0606 28.8184 31.483 29.759 32.0781 30.6229C32.6348 31.4291 33.3067 32.101 34.0937 32.6577C34.8808 33.2144 35.7639 33.6368 36.7045 33.8863C37.6643 34.1551 38.701 34.2895 39.6992 34.2895C40.4095 34.2895 41.1198 34.2511 41.8109 34.1551C42.3868 34.0975 42.9435 33.9439 43.481 33.7519C43.6922 33.656 43.8073 33.4448 43.7881 33.1952V30.1429C43.8073 30.047 43.7689 29.9126 43.6922 29.8358C43.6346 29.7974 43.5194 29.7398 43.3658 29.855C42.9051 30.0278 42.4252 30.1429 41.926 30.2005C41.3309 30.2581 40.7358 30.2773 40.1407 30.2773C39.6032 30.2773 39.0465 30.2005 38.5474 30.047C37.9907 29.9126 37.4724 29.6822 36.9925 29.3943C36.4741 29.0871 36.0518 28.684 35.7063 28.2041C35.3223 27.6665 35.0152 27.0714 34.804 26.4379C34.5737 25.6509 34.4585 24.8638 34.4777 24.0383C34.4585 22.9057 34.6888 21.7731 35.1496 20.7557C35.5719 19.8726 36.2438 19.124 37.0692 18.6056C37.9715 18.0681 39.0081 17.7994 40.064 17.8186C40.6974 17.8186 41.3501 17.857 41.9836 17.9913C42.502 18.0681 42.9819 18.2409 43.4618 18.4905C43.5386 18.5289 43.6538 18.5289 43.7305 18.4905C43.8073 18.4137 43.8649 18.2985 43.8457 18.1833V14.9774C43.8457 14.7663 43.7689 14.5935 43.5962 14.4783Z" fill="white"/>
</g>
<defs>
<clipPath id="clip0_120_30">
<rect width="49.2207" height="48" fill="white"/>
</clipPath>
</defs>
</svg>
