<svg width="49" height="48" viewBox="0 0 49 48" fill="none" xmlns="http://www.w3.org/2000/svg">
<path d="M40.5 0H8.5C4.08172 0 0.5 3.58172 0.5 8V40C0.5 44.4183 4.08172 48 8.5 48H40.5C44.9183 48 48.5 44.4183 48.5 40V8C48.5 3.58172 44.9183 0 40.5 0Z" fill="black"/>
<path d="M24.998 34.6156H13.288C13.0768 34.6156 13 34.5005 13 34.2509V13.288C13 13.0768 13.0768 13 13.2688 13H16.897C17.0313 13 17.1081 13.0768 17.1081 13.2304V30.4499H25.6315C25.8235 30.4499 25.8811 30.5459 25.8427 30.7379L25.3052 34.3085C25.286 34.4237 25.2476 34.5196 25.19 34.558C25.1324 34.5964 25.0556 34.6156 24.998 34.6156ZM27.9159 18.2023H31.1602C31.3522 18.2023 31.4674 18.2983 31.5441 18.5287C31.6017 18.6631 31.6593 18.8358 31.6785 19.0086C31.7169 19.2198 31.7361 19.4309 31.7553 19.6421C31.7745 19.8725 31.7745 20.122 31.7745 20.3716C32.312 19.6805 32.9839 19.0662 33.7518 18.6055C34.5772 18.1064 35.5371 17.8376 36.4969 17.876C36.6889 17.876 36.7657 17.972 36.7657 18.1639V22.1569C36.7657 22.3297 36.6697 22.3872 36.4777 22.3872C35.825 22.3489 35.1723 22.3872 34.5388 22.5216C34.0013 22.6368 33.5022 22.8288 33.0031 23.0783C32.6384 23.2703 32.2928 23.5391 32.0049 23.8462V34.3085C32.0049 34.5196 31.9281 34.5964 31.7553 34.5964H28.1847C27.9735 34.5964 27.8967 34.5004 27.8967 34.2701V22.9056C27.8967 22.4064 27.8967 21.9073 27.8775 21.3698C27.8775 20.8323 27.8583 20.2948 27.8392 19.7765C27.82 19.3158 27.7816 18.8742 27.724 18.4135C27.724 18.3559 27.724 18.2983 27.7624 18.2215C27.82 18.2023 27.8583 18.1831 27.9159 18.2023Z" fill="white"/>
</svg>
