<svg width="48" height="49" viewBox="0 0 48 49" fill="none" xmlns="http://www.w3.org/2000/svg">
<path d="M22.9467 0.134646C17.7175 0.384598 12.8177 2.25726 8.80257 5.53838C6.02929 7.80382 3.77178 10.7001 2.26414 13.9415C-0.322672 19.4841 -0.707519 25.7488 1.18498 31.5493C2.85926 36.6713 6.17212 41.0475 10.6395 44.039C15.3688 47.209 21.074 48.5976 26.7118 47.9549C36.0434 46.8876 43.8951 40.4841 46.8032 31.5651C48.6997 25.7567 48.3228 19.5278 45.74 13.9614C43.8078 9.79153 40.6179 6.18904 36.6901 3.74507C32.5956 1.19397 27.6878 -0.0954686 22.9467 0.134646ZM17.8485 2.10649C17.8485 2.11443 17.5588 2.37231 17.2057 2.67781C15.8171 3.87203 15.0434 4.8401 14.3372 6.27236C13.1787 8.61318 12.9208 11.1286 13.5675 13.7551C13.9087 15.1397 14.6308 16.572 15.5751 17.7622C15.9441 18.2225 16.7971 19.0755 17.2533 19.4444C18.3682 20.3332 19.7489 21.0592 21.0423 21.4322C21.9945 21.7059 22.8197 21.8091 24.0536 21.8091C25.4819 21.8091 26.5055 21.6345 27.7117 21.1941C28.2195 21.0076 29.2748 20.4879 29.7311 20.2022C31.084 19.3453 32.429 17.9963 33.1987 16.7148L33.4129 16.3657L33.774 16.3895C36.5433 16.5918 39.0944 17.5877 41.2567 19.3016C41.7248 19.6746 42.8595 20.8053 43.2166 21.2536C44.7163 23.1461 45.7796 25.6099 45.9185 27.5223L45.9423 27.8595L45.7638 27.3437C45.2559 25.848 44.5695 24.6419 43.5697 23.4754C40.9869 20.4681 36.7932 19.1191 32.9329 20.0634C30.2508 20.718 27.9735 22.3169 26.45 24.6181C24.3869 27.7405 24.129 31.8349 25.7676 35.366C25.8628 35.5763 25.9422 35.7667 25.9422 35.7945C25.9422 35.8223 25.7835 36.0841 25.589 36.3777C24.4543 38.0917 22.9586 39.4525 21.0661 40.496C19.5664 41.3212 17.8008 41.8648 16.0075 42.0433C15.3093 42.1147 13.6985 42.075 12.9883 41.964C11.9607 41.8092 10.9768 41.5553 10.0722 41.2101C9.55242 41.0118 9.24296 40.8808 9.38182 40.9126C10.8815 41.2776 11.8774 41.3966 13.1073 41.3569C14.4047 41.3133 15.464 41.099 16.6582 40.6269C18.0191 40.0913 19.2807 39.2621 20.3281 38.2147C21.9747 36.5642 23.0022 34.5408 23.3871 32.1761C23.4704 31.6524 23.5061 30.0853 23.4466 29.4981C23.3077 28.1412 22.9665 26.943 22.3873 25.7766C21.5144 24.015 20.1377 22.4955 18.4634 21.4322C17.9357 21.0989 16.8328 20.5712 16.2297 20.3649C15.2061 20.0118 14.5991 19.9007 12.901 19.742L12.3812 19.6944L12.2186 19.3532C11.0759 16.9291 10.6633 14.0883 11.0878 11.5729C11.1394 11.2555 11.191 10.9064 11.2029 10.7953C11.2108 10.6882 11.2981 10.3192 11.3973 9.98197C11.9924 7.903 13.0557 6.07795 14.5753 4.51476C15.5037 3.56256 16.44 2.84048 17.4676 2.28503C17.8445 2.08269 17.8485 2.08269 17.8485 2.10649Z" fill="black"/>
</svg>
