<svg width="48" height="48" viewBox="0 0 48 48" fill="none" xmlns="http://www.w3.org/2000/svg">
<g clip-path="url(#clip0_106_2)">
<path d="M0 24V48H24H48V24V5.1409e-07H24H0V24ZM16.64 17.472C16.64 20.496 16.656 22.0213 16.6933 22C16.7253 21.984 16.7467 21.904 16.7467 21.8293C16.7467 21.5253 17.0347 20.2987 17.2747 19.5733C17.584 18.656 17.8773 17.984 18.2933 17.264C19.776 14.6827 21.9893 13.1253 24.4427 12.928L24.9067 12.8907V17.632C24.9067 20.2347 24.928 22.3467 24.9493 22.3147C24.976 22.288 25.0347 22.0373 25.088 21.76C25.2107 21.0827 25.5947 19.9467 25.9413 19.2267C27.632 15.7067 30.976 13.36 34.8747 12.9653C35.1787 12.9333 35.552 12.9067 35.712 12.9067H36L35.9893 24.0107L35.9733 35.12L35.44 35.1093C34.4427 35.088 33.184 34.8427 32.1493 34.4747C31.152 34.1173 29.8507 33.376 28.96 32.656C28.432 32.2293 27.52 31.2853 27.104 30.736C26.128 29.4507 25.408 27.856 25.088 26.2987C25.0187 25.968 24.9493 25.68 24.9333 25.664C24.9173 25.648 24.9067 27.776 24.9067 30.3893V35.1467H24.7573C24.4373 35.1467 23.68 35.0293 23.2 34.9067C22.56 34.736 21.456 34.192 20.88 33.76C20.3893 33.392 19.5787 32.6027 19.2053 32.1333C18.1387 30.7947 17.2587 28.864 16.8853 27.0347C16.8107 26.6613 16.7467 26.2987 16.7467 26.224C16.7467 26.1493 16.7253 26.0693 16.6933 26.0533C16.656 26.032 16.64 27.5573 16.64 30.592V35.1573L16.3893 35.12C14.576 34.848 13.0453 32.2453 12.352 28.2667C12.0907 26.7733 12.032 25.984 12.032 24C12.032 22.032 12.0853 21.3173 12.3467 19.8027C12.736 17.552 13.4827 15.5147 14.3413 14.3573C15.0027 13.472 15.7973 12.9387 16.496 12.912L16.64 12.9067V17.472Z" fill="black"/>
</g>
<defs>
<clipPath id="clip0_106_2">
<rect width="48" height="48" fill="white"/>
</clipPath>
</defs>
</svg>
