<svg width="48" height="48" viewBox="0 0 48 48" fill="none" xmlns="http://www.w3.org/2000/svg">
<g clip-path="url(#clip0_110_17)">
<path d="M16.28 13.6891C15.0655 13.6891 14.2411 13.8073 13.8125 13.9282V21.7345C14.3236 21.8499 14.9473 21.8884 15.8101 21.8884C18.9892 21.8884 20.9511 20.2809 20.9511 17.5717C20.9483 15.1427 19.2612 13.6891 16.28 13.6891Z" fill="#030104"/>
<path d="M45.0627 0.00549316H2.94007C1.31616 0.00549316 0 1.31891 0 2.93732V45.0572C0 46.6783 1.31616 47.9945 2.94007 47.9945H45.0627C46.6838 47.9945 48 46.6783 48 45.0572V2.94006C48 1.31891 46.6838 0.00549316 45.0627 0.00549316ZM24.4383 23.6964C22.4022 25.6198 19.377 26.4826 15.8516 26.4826C15.063 26.4826 14.3596 26.4441 13.8101 26.3644V35.8221H7.88322V9.72969C9.72694 9.4192 12.3153 9.18289 15.967 9.18289C19.6517 9.18289 22.284 9.88631 24.0453 11.3014C25.7407 12.6368 26.8755 14.835 26.8755 17.4233C26.8755 20.0117 26.01 22.2016 24.4383 23.6964ZM33.3711 36.2123C30.8542 36.2123 28.6203 35.6682 27.1668 34.8796L28.2246 30.6042C29.3237 31.2664 31.6016 32.0522 33.3711 32.0522C35.1709 32.0522 35.9183 31.4257 35.9183 30.442C35.9183 29.4638 35.3302 28.994 33.0963 28.2466C29.1341 26.914 27.6009 24.7542 27.6394 22.4791C27.6394 18.9126 30.7003 16.1978 35.4484 16.1978C37.685 16.1978 39.6854 16.7117 40.8614 17.2969L39.8035 21.4185C38.9408 20.9459 37.2949 20.3222 35.6435 20.3222C34.1954 20.3222 33.3739 20.9102 33.3739 21.8911C33.3739 22.7924 34.113 23.2622 36.4678 24.0893C40.1168 25.3423 41.65 27.1887 41.6857 30.0079C41.6857 33.5827 38.8556 36.2123 33.3711 36.2123Z" fill="#030104"/>
</g>
<defs>
<clipPath id="clip0_110_17">
<rect width="48" height="48" fill="white"/>
</clipPath>
</defs>
</svg>
