<svg width="40" height="40" viewBox="0 0 40 40" fill="none" xmlns="http://www.w3.org/2000/svg">
<path d="M15.0668 35.8999C16.6668 36.3833 18.2835 36.6666 20.0002 36.6666C24.4204 36.6666 28.6597 34.9106 31.7853 31.785C34.9109 28.6594 36.6668 24.4202 36.6668 19.9999C36.6668 17.8112 36.2357 15.644 35.3982 13.6219C34.5606 11.5998 33.3329 9.76245 31.7853 8.21481C30.2376 6.66716 28.4003 5.4395 26.3782 4.60193C24.3561 3.76435 22.1889 3.33325 20.0002 3.33325C17.8115 3.33325 15.6442 3.76435 13.6221 4.60193C11.6 5.4395 9.76269 6.66716 8.21505 8.21481C5.08944 11.3404 3.3335 15.5796 3.3335 19.9999C3.3335 27.0833 7.7835 33.1666 14.0668 35.5666C13.9168 34.2666 13.7668 32.1166 14.0668 30.6332L15.9835 22.3999C15.9835 22.3999 15.5002 21.4333 15.5002 19.8999C15.5002 17.5999 16.9335 15.8833 18.5668 15.8833C20.0002 15.8833 20.6668 16.9333 20.6668 18.2833C20.6668 19.7166 19.7168 21.7666 19.2335 23.7333C18.9502 25.3666 20.1002 26.7999 21.7668 26.7999C24.7335 26.7999 27.0335 23.6333 27.0335 19.1666C27.0335 15.1666 24.1668 12.4333 20.0502 12.4333C15.3502 12.4333 12.5835 15.9333 12.5835 19.6166C12.5835 21.0499 13.0502 22.4999 13.8168 23.4499C13.9668 23.5499 13.9668 23.6833 13.9168 23.9333L13.4335 25.7499C13.4335 26.0333 13.2502 26.1333 12.9668 25.9333C10.8335 24.9999 9.60016 21.9666 9.60016 19.5166C9.60016 14.2499 13.3335 9.46658 20.5335 9.46658C26.2668 9.46658 30.7335 13.5833 30.7335 19.0499C30.7335 24.7833 27.1835 29.3832 22.1002 29.3832C20.4835 29.3832 18.9002 28.5166 18.3335 27.4999L17.2168 31.4499C16.8335 32.8833 15.7835 34.7999 15.0668 35.9499V35.8999Z" fill="black"/>
</svg>
