<svg width="48" height="48" viewBox="0 0 48 48" fill="none" xmlns="http://www.w3.org/2000/svg">
<g clip-path="url(#clip0_108_2)">
<path d="M7.5 0.665634C6.69375 0.759384 5.41875 1.13438 4.73438 1.47188C3.525 2.09063 2.24063 3.18751 1.5 4.25626C1.04063 4.93126 0.4875 6.15938 0.2625 7.03126L0.046875 7.82813V24V40.1719L0.2625 40.9688C1.19063 44.475 4.03125 46.9406 7.62188 47.3344C8.87813 47.475 39.1219 47.475 40.3781 47.3344C43.9688 46.9406 46.8094 44.475 47.7375 40.9688L47.9531 40.1719V24V7.82813L47.7375 7.03126C46.8094 3.52501 43.9688 1.05938 40.3781 0.665634C39.2813 0.543759 8.57813 0.543759 7.5 0.665634ZM20.1094 12.7031C21.225 12.8813 21.8344 13.0688 22.6875 13.5C25.1813 14.7563 26.4656 16.8469 26.4563 19.6406C26.4563 22.8656 24.7688 25.35 21.9188 26.3625C20.7563 26.775 19.7344 26.9156 17.6531 26.9719L15.75 27.0281V30.225C15.75 31.9781 15.7125 33.4781 15.675 33.5438C15.6094 33.6281 15.1219 33.6563 13.5375 33.6375L11.4844 33.6094L11.4563 23.1375L11.4375 12.6656L12.4875 12.6281C15.825 12.5344 19.3031 12.5719 20.1094 12.7031ZM38.9063 19.4813V21.6188L37.7625 21.7313C36.1031 21.8906 34.7625 22.3125 34.0594 22.9125L33.75 23.175L33.7313 28.3875L33.7031 33.6094L31.5844 33.6375C29.925 33.6563 29.4375 33.6375 29.3625 33.5344C29.2875 33.45 29.2594 31.05 29.2406 25.5469L29.2313 17.6719L30.8531 17.6438C32.6906 17.6156 33.0563 17.6531 33.1875 17.8969C33.2344 18 33.3281 18.4594 33.3938 18.9281L33.5063 19.7813L33.9375 19.3688C35.2219 18.1313 36.9188 17.3625 38.3719 17.3531L38.9063 17.3438V19.4813Z" fill="black"/>
<path d="M15.75 19.8281V23.25H17.0625C20.25 23.25 21.75 22.3781 22.125 20.325C22.3125 19.3031 21.9469 18.1219 21.2156 17.4187C20.4563 16.6875 19.3688 16.4062 17.2313 16.4062H15.75V19.8281Z" fill="black"/>
</g>
<defs>
<clipPath id="clip0_108_2">
<rect width="48" height="48" fill="white"/>
</clipPath>
</defs>
</svg>
