<svg width="49" height="48" viewBox="0 0 49 48" fill="none" xmlns="http://www.w3.org/2000/svg">
<path d="M37.1703 31.5791L9.77832 47.8445L45.246 45.4376L47.9775 9.67398L37.1701 31.5789L37.1703 31.5791Z" fill="white"/>
<path d="M45.3042 45.4131L42.2558 24.3727L33.9521 35.3374L45.3042 45.4131Z" fill="black"/>
<path d="M45.345 45.4131L23.0116 43.66L9.89648 47.7986L45.345 45.4131Z" fill="black"/>
<path d="M9.92863 47.8033L15.5079 29.5257L3.23047 32.1506L9.92844 47.8031L9.92863 47.8033Z" fill="white"/>
<path d="M33.9499 35.3976L28.8162 15.2896L14.125 29.0609L33.9499 35.398V35.3976Z" fill="white"/>
<path d="M46.8131 15.5727L32.9257 4.23041L29.0586 16.7326L46.8131 15.5727Z" fill="white"/>
<path d="M40.3179 0.186354L32.1502 4.70024L26.9971 0.125931L40.3179 0.186354Z" fill="white"/>
<path d="M0 38.2818L3.42155 32.0416L0.653741 24.6074L0 38.2818Z" fill="white"/>
<path d="M0.469727 24.3727L3.25448 32.2716L15.3548 29.5569L29.1694 16.7179L33.0681 4.33449L26.9294 0L16.4927 3.90588C13.2044 6.96433 6.8238 13.0157 6.59377 13.1294C6.36601 13.2457 2.38031 20.7791 0.469727 24.3727Z" fill="white"/>
<path d="M10.2475 10.1824C17.3741 3.11642 26.5613 -1.05826 30.0869 2.49901C33.6107 6.05628 29.8738 14.701 22.7472 21.7647C15.6206 28.8282 6.54733 33.2329 3.02394 29.6757C-0.501709 26.1208 3.12088 17.2461 10.2475 10.1824Z" fill="black"/>
<path d="M9.92871 47.796L15.4643 29.4601L33.8483 35.3662C27.2014 41.5992 19.8084 46.8685 9.92871 47.796Z" fill="black"/>
<path d="M29.1934 16.6818L33.913 35.376C39.4655 29.5377 44.4489 23.2612 46.8895 15.4978L29.1935 16.6818H29.1934Z" fill="black"/>
<path d="M46.8422 15.5921C48.7312 9.89195 49.1669 1.71444 40.2604 0.196136L32.9521 4.23284L46.8422 15.5921Z" fill="black"/>
<path d="M0 38.1995C0.261647 47.6073 7.04903 47.7476 9.94033 47.83L3.26174 32.2328L0 38.1995Z" fill="black"/>
<path d="M29.2197 16.711C33.4865 19.3335 42.0856 24.6003 42.2599 24.697C42.531 24.8495 45.9672 18.9024 46.7471 15.5413L29.2197 16.711Z" fill="black"/>
<path d="M15.457 29.4601L22.8571 43.7374C27.2328 41.3643 30.6595 38.473 33.7975 35.376L15.457 29.4601Z" fill="black"/>
<path d="M3.23304 32.2522L2.18457 44.7375C4.16292 47.44 6.88481 47.6749 9.73958 47.4643C7.67408 42.3234 3.54777 32.044 3.23304 32.2522Z" fill="black"/>
<path d="M32.9082 4.26428L47.6094 6.32734C46.8246 3.00273 44.4152 0.857221 40.3083 0.186539L32.9082 4.26428Z" fill="black"/>
</svg>
