<svg width="48" height="48" viewBox="0 0 48 48" fill="none" xmlns="http://www.w3.org/2000/svg">
<g clip-path="url(#clip0_127_6)">
<path d="M21.7033 0.103116C14.3158 0.815616 7.63144 4.95937 3.6377 11.3156C-1.19043 18.9937 -1.19043 29.0062 3.6377 36.6844C7.42519 42.7125 13.5283 46.6875 20.6252 47.7656C23.7752 48.2344 27.7127 47.9437 30.8064 47.0062C41.0346 43.9219 48.0002 34.5937 48.0002 24C48.0002 14.9812 42.9283 6.74062 34.8096 2.56874C30.9471 0.590616 26.1283 -0.318759 21.7033 0.103116ZM33.2346 6.04687C35.5127 6.44999 37.3221 7.40624 38.2971 8.72812C40.0127 11.0531 39.3189 14.85 36.6377 17.8594C34.6127 20.1375 32.2033 21.45 28.7346 22.1812C27.1971 22.5 24.9846 22.5844 23.7189 22.3687C22.5471 22.1625 21.4783 21.6469 20.7658 20.9531C20.2127 20.4094 19.8283 19.7062 19.9221 19.4062C20.0158 19.1156 20.2408 19.1812 20.7377 19.65C21.6471 20.4937 22.8189 20.8594 24.6096 20.85C27.8533 20.8219 31.5471 19.3406 33.9283 17.1C36.8533 14.3531 37.4908 11.0531 35.3533 9.71249C33.5064 8.54999 29.9064 8.47499 26.2971 9.51562C23.0064 10.4719 18.6377 12.7781 16.0596 14.9344C12.1971 18.1594 11.3721 21.4312 13.6877 24.2531C14.2408 24.9187 15.4783 26.0062 17.2033 27.3281C17.8783 27.8437 18.7877 28.6125 19.2377 29.0437L20.0533 29.8312L20.6439 29.6812C22.7252 29.175 25.4064 29.25 26.9533 29.8687C29.7002 30.9656 31.2189 33.7125 30.2814 35.8875C29.9158 36.7406 28.4814 37.8469 27.9846 37.6594C27.7408 37.5656 27.8252 37.4344 28.3783 37.0125C29.1377 36.4406 29.4752 35.8594 29.5127 35.0719C29.6064 33.3281 28.1252 31.7906 25.7814 31.2187C24.7408 30.9656 23.0439 30.8812 22.0408 31.0219C20.9439 31.1812 20.9908 31.1344 21.2064 31.8094C21.5908 33.0562 21.5814 34.9031 21.1783 36.375C20.5127 38.8312 18.5158 40.9125 15.9846 41.775C15.3096 42.0094 15.1033 42.0375 13.9221 42.0375C12.2533 42.0469 11.9158 41.9531 11.2877 41.3062C9.81582 39.7875 10.0596 37.05 11.8596 35.0906C13.0502 33.7875 15.5533 32.0156 17.7564 30.9187L18.2064 30.6844L17.8033 30.3562C17.5783 30.1781 16.5939 29.4656 15.6096 28.7812C12.7408 26.775 11.4002 25.65 10.3783 24.3656C9.26269 22.9781 8.64394 21.4312 8.76582 20.3437C8.89707 19.1062 9.56269 17.4844 10.4252 16.2469C12.9377 12.6656 17.6908 9.42187 23.7658 7.15312C25.5096 6.50624 27.3283 6.08437 29.3908 5.86874C30.1033 5.79374 32.3908 5.89687 33.2346 6.04687Z" fill="black"/>
<path d="M18.2344 32.5406C16.3782 33.6 14.8501 34.8844 14.0719 36.0469C13.0688 37.5469 12.8719 38.9156 13.5657 39.4688C14.0063 39.8063 15.1969 39.6656 16.1813 39.1594C17.5501 38.4469 18.8438 36.8063 19.2751 35.2406C19.5376 34.2844 19.4626 32.1938 19.1626 32.0906C19.1157 32.0719 18.6938 32.2781 18.2344 32.5406Z" fill="black"/>
</g>
<defs>
<clipPath id="clip0_127_6">
<rect width="48" height="48" fill="white"/>
</clipPath>
</defs>
</svg>
