<svg width="48" height="48" viewBox="0 0 48 48" fill="none" xmlns="http://www.w3.org/2000/svg">
<g clip-path="url(#clip0_107_39)">
<path d="M21.7827 0.202172C20.5892 0.299998 18.6131 0.64565 17.5761 0.94565C15.2153 1.61739 13.5131 2.3413 11.6087 3.46956C8.8957 5.08695 6.15657 7.66956 4.29788 10.3696C0.117441 16.4283 -1.03691 24.1304 1.17396 31.2522C1.76744 33.1565 2.92831 35.5826 4.05005 37.2522C5.02179 38.713 5.81744 39.6717 7.13483 40.9891C8.68048 42.5283 10.0109 43.5783 11.674 44.5696C15.2218 46.6696 18.9783 47.7391 23.2174 47.85C24.7957 47.8891 26.0153 47.8239 27.3196 47.6348C33.7892 46.7022 39.5674 43.2326 43.4022 37.9696C44.9348 35.863 46.2392 33.2022 46.9761 30.6848C47.374 29.3152 47.6674 27.7957 47.8174 26.3609C47.9153 25.3761 47.9153 22.6239 47.8174 21.6391C47.537 18.8478 46.8 16.2391 45.587 13.7087C43.2587 8.87609 39.5087 5.08043 34.6566 2.65435C31.8979 1.27826 28.9435 0.456519 25.8066 0.202172C24.8479 0.117389 22.787 0.123911 21.7827 0.202172ZM28.3696 12.5543C28.5653 12.5935 29.3935 13.3891 33.874 17.8565C37.487 21.463 39.1827 23.2043 39.2674 23.3804C39.4174 23.7065 39.424 24.0261 39.274 24.3457C39.2022 24.5087 37.3892 26.3674 33.9131 29.837C29.687 34.063 28.6109 35.1065 28.3892 35.1913C28.0305 35.3283 27.6587 35.2761 27.3 35.0217C27.1566 34.9239 26.3153 34.1152 25.4348 33.2348C24.5544 32.3543 23.8109 31.6304 23.7783 31.6304C23.7392 31.6304 22.9435 32.4 22.0044 33.3391C21.0653 34.2717 20.2305 35.0804 20.1457 35.1261C19.8457 35.2891 19.474 35.3022 19.1674 35.1652C18.7892 34.9957 8.41961 24.6326 8.30222 24.3065C8.19788 24.013 8.19788 23.713 8.31527 23.4261C8.43918 23.1261 18.6914 12.8413 19.0566 12.6457C19.3631 12.4891 19.8979 12.4826 20.1392 12.6326C20.237 12.6913 21.0979 13.5196 22.0566 14.4717L23.8044 16.2065L25.5522 14.4522C26.5174 13.487 27.3653 12.6717 27.4305 12.6326C27.587 12.5413 27.9196 12.4696 28.0435 12.4891C28.0957 12.5022 28.2457 12.5348 28.3696 12.5543Z" fill="black"/>
<path d="M15.4109 19.5783C12.763 22.2261 11.4587 23.5761 11.413 23.713C11.3674 23.8435 11.3674 23.9739 11.4065 24.0717C11.4913 24.287 19.2326 32.0022 19.4348 32.0739C19.5456 32.1196 19.6565 32.113 19.7739 32.0609C19.8652 32.0217 20.4326 31.5196 21.0261 30.9391L22.1022 29.8957L19.4935 27.287C17.8043 25.5978 16.8456 24.5935 16.7609 24.4174C16.6174 24.1239 16.5978 23.6674 16.7152 23.4C16.7609 23.2957 17.9935 22.0174 19.4609 20.5435L22.1282 17.8761L21.8739 17.6283C21.7304 17.4913 21.2152 16.9891 20.7326 16.513C19.9043 15.7044 19.8326 15.6522 19.5913 15.6522C19.3435 15.6522 19.2587 15.7304 15.4109 19.5783Z" fill="black"/>
</g>
<defs>
<clipPath id="clip0_107_39">
<rect width="48" height="48" fill="white"/>
</clipPath>
</defs>
</svg>
